<svg width="1000.0000000000001" height="250.00000000000003" xmlns="http://www.w3.org/2000/svg" xml:space="preserve" version="1.1">
 <g>
  <title>Layer 1</title>
  <g id="svg_24">
   <path id="svg_25" fill="#fdb919" d="m113,114.9l-4.9,19.6c5.6,1.4 22.7,7 25.4,-4.1c3,-11.5 -14.9,-14 -20.5,-15.5z" class="st0"/>
   <path id="svg_26" fill="#fdb919" d="m135.2,56.5c-48,-12 -96.8,17.3 -108.7,65.3c-12,48 17.3,96.8 65.3,108.7c48,12 96.8,-17.3 108.7,-65.3c12,-48.1 -17.3,-96.9 -65.3,-108.7zm17.9,74.2c-1.3,8.7 -6.1,13 -12.6,14.4c8.9,4.6 13.3,11.6 9,23.9c-5.3,15.2 -17.9,16.4 -34.7,13.3l-4,16.3l-9.9,-2.4l4,-16.2c-2.6,-0.6 -5.1,-1.3 -7.9,-2l-4,16.2l-9.9,-2.4l4,-16.3c-2.3,-0.6 -4.6,-1.1 -7,-1.9l-12.9,-3.1l4.9,-11.3c0,0 7.3,1.9 7.1,1.7c2.7,0.7 4,-1.1 4.6,-2.3c11,-44.3 0,0 11,-44.3c0.1,-2.1 -0.6,-4.7 -4.6,-5.7c0.1,-0.1 -7.1,-1.7 -7.1,-1.7l2.6,-10.6l13.6,3.4l0,0c2,0.6 4.1,1 6.3,1.4l4,-16.2l9.9,2.4l-4,15.9c2.6,0.6 5.3,1.1 7.9,1.9l3.9,-15.7l9.9,2.4l-4,16.2c12.6,4.4 21.6,10.8 19.9,22.7z" class="st0"/>
   <path id="svg_27" fill="#fdb919" d="m105.6,144.5l-5.4,21.7c6.7,1.7 27.3,8.3 30.3,-4c3.3,-12.8 -18.2,-16.1 -24.9,-17.7z" class="st0"/>
  </g>
  <text font-style="normal" font-weight="normal" xml:space="preserve" text-anchor="start" font-family="sans-serif" font-size="121" stroke-width="0" id="svg_33" y="172.40725" x="259.25679" fill="#fdb919">Yellow Page</text>
 </g>

</svg>