<?xml version="1.0" encoding="utf-8"?>
<!-- Generator: Adobe Illustrator 23.0.1, SVG Export Plug-In . SVG Version: 6.00 Build 0)  -->
<svg version="1.1" xmlns="http://www.w3.org/2000/svg" xmlns:xlink="http://www.w3.org/1999/xlink" x="0px" y="0px"
	 viewBox="0 0 2200 2200" style="enable-background:new 0 0 2200 2200;" xml:space="preserve">
<style type="text/css">
	.st0{display:none;}
	.st1{display:inline;fill:#383838;}
	.st2{fill:#FAB719;}
</style>
<g id="background" class="st0">
	<rect class="st1" width="2200" height="2200"/>
</g>
<g id="art">
	<g>
		<g>
			<path class="st2" d="M273,1064.2c-22.7,0-40.9,10-51.1,24.2v-22.4h-51.8v168.9h51.8v-91.7c0-23,12.7-35.7,32.4-35.7
				c19.7,0,32.4,12.7,32.4,35.7v91.7H338v-98.7C338,1090.9,312,1064.2,273,1064.2z"/>
		</g>
		<g>
			<path class="st2" d="M631.6,1115.1c0-8.2,6.7-13,18.8-13c14.5,0,23.3,7.6,24.8,19.1H723c-3.3-33.3-27.5-57.5-71.1-57.5
				c-44.2,0-68.7,23.6-68.7,52.4c0,62,92,42.4,92,69.6c0,7.6-7,13.6-20.3,13.6c-14.2,0-24.8-7.9-26-19.7h-51.2
				c2.4,32.7,32.7,57.8,77.8,57.8c42.4,0,68.4-22.1,68.4-51.5C723,1123,631.6,1142,631.6,1115.1z"/>
		</g>
		<g>
			<path class="st2" d="M831.3,1191.1c-11.5,0-15.7-4.2-15.7-14.2v-67.8h33.9v-43h-33.9v-41.2h-51.8v41.2h-20.6v43h20.6v67.2
				c0,43.9,24.5,58.7,59.6,58.7h26.3v-43.9H831.3z"/>
		</g>
		<g>
			<path class="st2" d="M930.3,1094.2v-28.1h-51.8v168.9h51.8v-78.4c0-29.1,14.2-37.5,38.7-37.5h14.2v-54.8
				C960.6,1064.2,942.1,1076.4,930.3,1094.2z"/>
		</g>
		<g>
			<path class="st2" d="M1008.1,1066.1v168.9h51.8v-168.9H1008.1z M1034.1,992.5c-18.5,0-30.9,12.4-30.9,28.1
				c0,15.4,12.4,27.9,30.9,27.9c18.2,0,30.6-12.4,30.6-27.9C1064.7,1004.9,1052.3,992.5,1034.1,992.5z"/>
		</g>
		<g>
			<path class="st2" d="M1170.9,1193.2c-18.5,0-31.2-14.5-31.2-42.7c0-28.2,12.7-42.7,31.2-42.7c14.2,0,22.7,7.6,26.9,19.4h55.1
				c-8.8-40.2-38.7-63.6-81.1-63.6c-49.6,0-84.7,33.6-84.7,86.9c0,53.6,35.1,86.9,84.7,86.9c42.4,0,72.3-24.5,81.1-63.6h-55.1
				C1193.3,1186.2,1185.1,1193.2,1170.9,1193.2z"/>
		</g>
		<g>
			<path class="st2" d="M1384.3,1064.2c-23.3,0-41.8,10-52.1,24.5V1011h-51.8v224h51.8v-91.7c0-23,12.7-35.7,32.4-35.7
				c19.7,0,32.4,12.7,32.4,35.7v91.7h51.4v-98.7C1448.4,1090.9,1422.7,1064.2,1384.3,1064.2z"/>
		</g>
		<g>
			<path class="st2" d="M1508.7,1181.1c-18.5,0-30.9,12.4-30.9,28.5c0,15.4,12.4,27.8,30.9,27.8c18.2,0,30.6-12.4,30.6-27.8
				C1539.2,1193.5,1526.8,1181.1,1508.7,1181.1z"/>
		</g>
		<g>
			<path class="st2" d="M1626.7,1066.1v-1.5c0-17.9,7-23.9,26.9-22.7V998c-51.5-2.7-78.7,19.1-78.7,63.3v4.8h-18.8v43h18.8v125.9
				h51.8v-125.9h27.8v-43H1626.7z"/>
		</g>
		<g>
			<path class="st2" d="M1793.8,1066.1v91.7c0,23-12.7,35.7-32.7,35.7c-19.4,0-32.4-12.7-32.4-35.7v-91.7h-51.4v98.7
				c0,45.1,26.3,72,65.4,72c22.7,0,40.9-10.3,51.2-24.8v23h51.8v-168.9H1793.8z"/>
		</g>
		<g>
			<path class="st2" d="M1985.7,1064.2c-22.7,0-40.9,10-51.2,24.2v-22.4h-51.8v168.9h51.8v-91.7c0-23,12.7-35.7,32.4-35.7
				c19.7,0,32.4,12.7,32.4,35.7v91.7h51.4v-98.7C2050.7,1090.9,2024.7,1064.2,1985.7,1064.2z"/>
		</g>
	</g>
	<g>
		<path class="st2" d="M560.7,1047.4l5.5,2.2l-13.3-36.4l10.8-20.3h-8.4l8.9-7.2l-6.7-1.6c-12.8-3-26.2-5.1-39.8-6.2
			c-3.1-1.7-6.7-3.1-10.8-4l47.6-7.1c1.5-0.2,2.6-1.6,2.3-3.2c-0.2-1.5-1.6-2.6-3.2-2.3l-55.8,8.3l-0.5-1.4
			c-9.4,0.4-13.7,2.4-15.7,4.4c-15.9,1.3-34.6,5.9-54.6,14.2c0,0,0,0,0,0l-18.4-10.2l1.6,17.4l-21.5,1.7l15.9,10.5
			c-3.6,0.3-7.2,0.7-10.8,1.2c-4.3,0.6-8.6,1.4-12.9,2.4c-1.1,0.2-2.1,0.5-3.2,0.8c-1,0.3-2.1,0.6-3.2,0.9c-2.1,0.6-4.2,1.2-6.3,2
			c-2.1,0.7-4.1,1.5-6.2,2.4c-2,0.9-4,1.9-6,3c-0.5,0.3-1,0.5-1.5,0.8l-1.4,0.9l-1.4,0.9c-0.2,0.2-0.5,0.3-0.7,0.5l-0.7,0.5
			c-1.9,1.3-3.6,2.8-5.3,4.4c-3.3,3.2-6.2,7.1-8,11.5c-0.9,2.2-1.7,4.5-2.1,6.8c-0.4,2.3-0.6,4.7-0.6,7v8.2l5.8-5.8l1.4-1.4l0.7-0.7
			l0.8-0.7l1.5-1.4l1.6-1.3l0.2-0.2c12.9-0.5,25.8-0.1,38.2,1.4c10,1.1,20,2.9,29.9,5.4c-29.7,16.8-49.8,48.6-49.8,85.2
			c0,54,43.8,97.8,97.8,97.8c0.8,0,1.7,0,2.5,0c0,0,0,0,0,0c0.9,0,1.7,0,2.6,0c12.5,0,24.6-2.4,35.9-7.3c11-4.7,20.9-11.3,29.4-19.8
			c8.5-8.5,15.1-18.4,19.8-29.4c4.5-10.8,7-22.1,7.2-33.8c0,0,0,0,0-0.1c0.2-2.5,0.3-4.9,0.3-7.5c0-2.4-0.1-4.7-0.3-7.1v-28
			l4.9,10.1l0.6-13.3c0-0.5,0.5-11.9-0.2-25.4C564.4,1064.6,563,1054.6,560.7,1047.4z M495.5,992.3c3.4,0,6.6,1.1,9.4,3.1
			c2.6,2,4.6,4.7,5.6,7.8c0.5,1.6,0.8,3.2,0.8,4.9c0,2.1-0.4,4.1-1.2,6c-1.2,2.9-3.1,5.3-5.7,7.1c-2.6,1.8-5.7,2.7-8.9,2.7
			c-8.7,0-15.8-7.1-15.8-15.8S486.8,992.3,495.5,992.3z M476.6,995.8c-2.3,3.5-3.6,7.8-3.6,12.3c0,12.4,10.1,22.5,22.5,22.5
			c9.4,0,17.5-5.8,20.9-14l7.9-2.6v-1.4c5.6,2,10.1,6.6,11.8,12.3c1.1,4.5,0.2,9.6-2.5,14.8c-3,5.7-7.8,10.5-13.1,13.3
			c-3.8,1.9-7.5,2.7-11,2.3c0,0,0,0,0,0c-0.2,0-0.5-0.1-0.7-0.1c-2.7-0.5-5.1-1.8-7.3-3.8h0c-0.6-0.6-1.3-1.3-1.9-2
			c-0.4-0.6-0.8-1.1-1.3-1.7c0,0,0,0-0.1-0.1c-0.6-0.8-1.3-1.6-2-2.4c-4.1-5-8.8-9.5-14-13.4c-4.9-3.7-10.2-6.9-15.8-9.5
			c-1.2-3.1-2.7-8.8-0.8-14.6c1.6-4.8,5.1-8.7,10.5-11.9C476.3,995.8,476.5,995.8,476.6,995.8z M463.5,1006.9
			c-1.7,5.3-1,10.4,0.1,14c-5.2-2.2-10.5-4-16-5.3c-1.6-0.4-3.1-0.7-4.7-1c-1.6-0.3-3.1-0.6-4.7-0.8c-1.6-0.2-3.2-0.4-4.8-0.6
			c-0.8-0.1-1.6-0.1-2.4-0.2c-0.4,0-0.8,0-1.2-0.1l-0.7-0.6c1.4-1.9,4.1-4.7,8.4-7.2c9.6-5.7,22.5-8.1,34.2-9
			C467.5,999.1,464.8,1002.7,463.5,1006.9z M417.5,1000.2l-1.1-11.6l9.9,5.5v0c0,0,5.4,1.6,14.8,1.5c-3,1.2-5.7,2.6-8.1,4.1
			c-4.6,2.9-7.5,5.8-9.2,8.1l-1.8-1.6l-1-0.8h-2.9l-1.6,0c-0.2,0-0.4,0-0.7,0l-7-4.6L417.5,1000.2z M355.6,1035.3l-0.5,0.2l-0.5,0.2
			l-1,0.5l-1,0.5c-0.3,0.2-0.7,0.3-1,0.5l-2,1.1l-0.5,0.3c-0.2,0.1-0.3,0.2-0.5,0.3l-1,0.6c-0.6,0.4-1.3,0.8-1.9,1.1l-1.9,1.2
			c-0.3,0.2-0.6,0.4-0.9,0.6l-0.9,0.7l-0.1,0c0.3-1,0.7-2.1,1.1-3.1c1.5-3.5,3.7-6.6,6.5-9.3c1.4-1.3,2.9-2.6,4.5-3.8l0.6-0.4
			c0.2-0.2,0.4-0.3,0.6-0.4l1.2-0.8l1.3-0.8c0.4-0.3,0.9-0.5,1.3-0.8c1.8-1,3.6-1.9,5.5-2.7c0.8-0.4,1.6-0.7,2.4-1l12.5,8.4
			c-4.6,0.8-9.3,1.8-13.8,3.2l-0.5,0.1c-0.2,0.1-0.4,0.1-0.5,0.2l-1,0.3l-2.1,0.7l-2.1,0.8l-1,0.4c-0.3,0.1-0.7,0.3-1,0.4
			L355.6,1035.3z M356.9,1041l0.2-0.1l0.5-0.2l0.5-0.2l1.9-0.9c0.3-0.2,0.6-0.3,0.9-0.4l0.9-0.4l1.9-0.8l1.9-0.7l1-0.4
			c0.2-0.1,0.3-0.1,0.5-0.2l0.5-0.2c3.5-1.2,7.2-2.3,10.9-3.2l-7.9,8.1C366,1041.1,361.4,1041,356.9,1041z M385.1,1043.6
			c-3.8-0.4-7.7-0.8-11.6-1l9-9.2c0.3-0.1,0.7-0.1,1-0.2c5.5-1,11.1-1.7,16.7-2.2c5.6-0.4,11.2-0.6,16.9-0.6c2.8,0,5.6,0.1,8.5,0.2
			l4.2,0.2l4.2,0.3c5.6,0.4,11.3,0.9,16.9,1.6c5.6,0.7,11.2,1.5,16.9,2.4c-5.5-1.2-11.1-2.2-16.7-3.2c-5.6-0.9-11.2-1.8-16.9-2.4
			l-4.2-0.5l-4.2-0.4c-2.8-0.2-5.7-0.5-8.5-0.6c-5.7-0.3-11.4-0.4-17.1-0.3c-5.6,0.2-11.3,0.6-16.9,1.3l-13.3-8.9
			c0.2-0.1,0.4-0.2,0.6-0.2c1.9-0.7,3.9-1.3,5.9-1.9c1-0.3,2-0.5,3-0.8c1-0.2,2-0.5,3-0.7c4.1-0.9,8.2-1.7,12.3-2.3
			c4.1-0.6,8.3-1.1,12.5-1.4c2.1-0.2,4.2-0.3,6.3-0.4c1,0,2.1-0.1,3.1-0.1l1.6,0h0.3l7.7,6.6l0.9,0.8l1.3,0l0.5,0l0.5,0
			c0.4,0,0.7,0,1.1,0.1c0.7,0,1.5,0.1,2.2,0.2c1.5,0.1,3,0.3,4.4,0.5c1.5,0.2,3,0.5,4.4,0.8c1.5,0.3,2.9,0.6,4.4,1
			c5.8,1.4,11.5,3.4,16.9,5.9c5.4,2.5,10.6,5.6,15.3,9.1c2.5,1.9,5,4,7.2,6.2c-3.4,1.4-8.3,0.4-18.9-2c-4.7-1.1-10.5-2.4-17.5-3.7
			c-10.7-2-18.5-0.7-23.3,4c-2.9,2.8-4,6.2-4.4,9C409.5,1047.3,397.3,1045,385.1,1043.6z M375.5,1139c0-35.1,21.7-66.3,53.3-79.2
			l0.1,0.1l0-0.1c2.1-0.8,4.2-1.6,6.3-2.3c2.2-0.7,4.5-1.3,6.9-1.9c-2.2-3.5-5.2-6.2-8.8-8.1c-0.9-0.5-1.8-0.9-2.7-1.2
			c3.1-2.8,9-3.5,17-2c0.1,0,0.1,0,0.1,0c6.9,1.3,12.6,2.6,17.2,3.6c7.1,1.6,12.2,2.8,16.4,2.8c3.5,0.1,6.4-0.6,8.9-2.3
			c0.3,0.3,0.6,0.6,0.8,1c0.6,0.7,1.2,1.5,1.7,2.2c0.4,0.6,0.9,1.2,1.4,1.8c0.8,1,1.5,2.1,2.2,3.2l1.2,1.9c0.4,0.6,0.8,1.3,1.1,1.9
			c0.2,0.3,0.4,0.6,0.6,1l0.5,1l0.5,1l0.3,0.5l1.2,2.5c0.2,0.3,0.3,0.7,0.5,1l0.9,2c0.2,0.3,0.3,0.7,0.4,1l0.8,2.1l0.8,2.1l0.4,1
			l0.3,1.1l0.7,2.1l0.6,2.2l0.3,1.1c0.1,0.4,0.2,0.7,0.3,1.1l0.6,2.2c0,0.2,0.1,0.4,0.1,0.5l0.1,0.5l0.2,1.1
			c0.2,0.7,0.3,1.5,0.5,2.2c0.6,3,1.1,5.9,1.5,8.9l0.3,2.2c0,0.4,0.1,0.8,0.1,1.1l0.1,1.1l0.2,2.3l0.2,2.3l0.1,1.6l-7.5-10.3
			c0,0-1.7,13.7-2.9,19.1l-2.6-6.5c0,0-3.1,16.3-12,28.7l0.3-11.3c0,0-6,14.7-26.7,19.3h-1.1l10.7-28.4l-11.7,9.5l7.7-27.8l-9.1,7.2
			c2.9-14.4-4.5-29.1-4.9-29.8l-1.6-3l-5.3,2.7c1.4-6.4,1.1-12.8-1.1-18.4l1.1,5.1c-3.7,0.8-7.3,1.8-10.7,3.1
			c-28.9,10.8-49,38.8-49,70.5c0,22.6,10,43.6,27.1,57.7c2.4,2,4.9,3.9,7.6,5.6c0.2,0.1,0.4,0.2,0.5,0.3c5.3-6.1,12.5-13,20.1-16.9
			c11.8-5.9,17.5-14.8,20.2-21.2c1.8-4.2,2.6-7.9,2.9-10.3c1.8-0.5,4.4-1.4,7.2-2.7c0.5-0.2,1-0.5,1.5-0.7
			c-0.4,10.3-2.8,18.5-7.5,25.5c-4.9,7.2-11.8,12.6-20.6,18.5c-9.1,6.1-15,13.1-18.3,17.9c-1.8,2.6-3.1,4.9-3.9,6.5
			c-3.3-2-6.4-4.2-9.4-6.7c0.4-0.5,0.8-1.2,1.4-1.9c-1.9-1.2-3.7-2.5-5.5-3.9C387.9,1190.7,375.5,1165.8,375.5,1139z M457,1220.8
			c-0.1,0.4-0.3,0.8-0.4,1.1c-0.1,0.4-0.3,0.8-0.4,1.2l-0.4,1.2c-0.1,0.2-0.1,0.4-0.2,0.6l-0.2,0.6l-0.4,1.2l-0.3,1.2l-0.2,0.6
			c-0.1,0.2-0.1,0.4-0.1,0.6l-0.3,1.2c0,0.2-0.1,0.4-0.1,0.6c-5.9-0.9-11.7-2.5-17.3-4.6c-4.2-1.6-8.2-3.5-12.1-5.8
			c2.3-4.6,8.7-15.1,21.5-23.7c9.1-6.1,16.2-11.6,21.3-19.1c5.2-7.7,7.8-16.6,8-28.1c2.2-1.3,4.1-2.7,5.8-4.2l2.5,14.2l4.6-7.7
			c0.1-0.2,3.4-5.6,6.7-11.8c1-1.8,3.4-7,4.1-8.5l1,19.3l4.1-14.9c0.4-1.6,3.2-11.8,4.9-20.2l3.3,5.4c0,0.1,0,0.2,0,0.3
			c-0.1,1.5-0.2,2.9-0.4,4.4c-0.3,3-0.8,5.9-1.4,8.9c-1.2,5.9-3,11.6-5.2,17.2c-0.5,1.4-1.2,2.8-1.8,4.1c-0.6,1.3-1.3,2.7-2,4
			l-0.5,1l-0.3,0.5l-0.3,0.5l-1.1,2c-0.2,0.3-0.4,0.7-0.6,1l-0.6,1l-0.6,1c-0.2,0.3-0.4,0.6-0.6,0.9l-1.2,1.9
			c-0.4,0.6-0.9,1.2-1.3,1.8l-0.6,0.9c-0.2,0.3-0.5,0.6-0.7,0.9l-1.4,1.8c-0.2,0.3-0.5,0.6-0.7,0.9l-0.7,0.9l-0.7,0.9
			c-0.1,0.2-0.2,0.3-0.4,0.4l-0.4,0.4c-1,1.1-2,2.3-3,3.3l-1.6,1.6l-1.7,1.7c-1.1,1.1-2.2,2.3-3.3,3.4c-2.1,2.3-4.3,4.6-6.3,7.1
			l-0.8,0.9c-0.3,0.3-0.5,0.6-0.8,0.9c-0.5,0.6-1,1.2-1.5,1.8l-1.5,1.9c-0.2,0.3-0.5,0.6-0.7,1l-0.7,1c-1.9,2.6-3.7,5.2-5.4,8
			c-1.7,2.8-3.2,5.6-4.5,8.7L457,1220.8z M489.8,1228.9l36.7-45.4h11.4l12.3-15.4c-1,3.9-2.3,7.8-3.9,11.5
			c-4.3,10.2-10.5,19.4-18.4,27.2c-7.9,7.9-17,14-27.2,18.3C497.2,1226.7,493.5,1227.9,489.8,1228.9z M553,1146.3
			c0,2.7-0.1,5.3-0.4,8l-18,22.6h-11.4l-43.8,54.3c-4,0.6-8,0.8-12.1,0.8c-2.2,0-4.5-0.1-6.7-0.3c0,0,0,0,0,0l0.2-1
			c0-0.2,0.1-0.4,0.1-0.5l0.1-0.5l0.3-1.1l0.3-1l0.2-0.5c0-0.2,0.1-0.3,0.2-0.5l0.4-1c0.1-0.3,0.3-0.7,0.4-1c0.1-0.3,0.3-0.7,0.4-1
			l0.4-1c1.1-2.7,2.5-5.3,4-7.9c1.5-2.6,3.2-5,5-7.5l0.7-0.9c0.2-0.3,0.5-0.6,0.7-0.9l1.4-1.8c0.5-0.6,1-1.2,1.4-1.8
			c0.2-0.3,0.5-0.6,0.7-0.9l0.7-0.9c2-2.3,4-4.6,6.1-6.8c1-1.1,2.1-2.2,3.2-3.3l1.6-1.6l1.7-1.7c1.1-1.1,2.2-2.4,3.2-3.6l0.4-0.5
			c0.1-0.1,0.3-0.3,0.4-0.5l0.8-0.9l0.8-0.9c0.2-0.3,0.5-0.6,0.8-0.9l1.5-1.9c0.2-0.3,0.5-0.6,0.7-1l0.7-1c0.5-0.7,0.9-1.3,1.4-2
			l1.3-2c0.2-0.3,0.4-0.7,0.6-1l0.6-1l0.6-1c0.2-0.4,0.4-0.7,0.6-1l1.2-2.1l0.3-0.5l0.3-0.5l0.6-1.1c0.8-1.4,1.4-2.9,2.1-4.3
			c0.6-1.5,1.3-2.9,1.9-4.4c2.4-5.9,4.3-12.1,5.6-18.4c0.7-3.1,1.2-6.3,1.5-9.5c0.2-1.6,0.3-3.2,0.4-4.8c0-0.4,0-0.8,0-1.2
			c0-0.2,0-0.4,0-0.6s0-0.4,0-0.7l0-2.4l0-2.4c0-0.8-0.1-1.6-0.1-2.4l-0.1-2.4c0-0.8-0.1-1.6-0.2-2.4l-0.2-2.4l-0.2-2.4l-0.1-1.2
			c0-0.4-0.1-0.8-0.1-1.2l-0.3-2.4c-0.4-3.2-1-6.3-1.6-9.4c-0.1-0.8-0.3-1.5-0.5-2.3l-0.3-1.2l-0.1-0.6c0-0.2-0.1-0.4-0.1-0.6
			l-0.6-2.3c-0.1-0.4-0.2-0.8-0.3-1.2l-0.3-1.1l-0.7-2.3l-0.8-2.3l-0.4-1.1l-0.4-1.1l-0.8-2.2l-0.9-2.2c-0.1-0.4-0.3-0.7-0.5-1.1
			l-0.5-1.1l-0.5-1.1c-0.2-0.4-0.3-0.7-0.5-1.1l-0.9-1.7c0.1,0,0.2,0.1,0.4,0.1c1.3,0.2,2.6,0.4,4,0.4c2.4,0,4.8-0.4,7.2-1.1
			c1.7-0.5,3.3-1.2,4.9-2c5.1-2.7,9.8-6.8,13.3-11.8v7.8c-3,0.5-3,1.5-3,1.5v17.9v3.9c0,0,0,1.4,3,2v53.7c-3.5,0.8-6,2.8-6,5.1
			c0,3,4.2,5.5,9.5,5.5s9.5-2.5,9.5-5.5c0-2.4-2.5-4.4-6.1-5.2v-47v-6.7c3-0.6,3-2,3-2v-21.8c0,0,0-1-3-1.5v-24.6
			c0-12.1-8.3-22.3-19.6-25v-1.9l-7.3-2.4c-1.4-4.2-4-7.9-7.4-10.6c6.9,0.6,13.7,1.7,19.7,3.7c-0.4-3.2-1.4-6-3.1-8.5
			c7.8,0.9,15.5,2.1,23,3.7l-12.9,10.4h16.3l-6.9,13l9.1,25l-9.2-3.7l5.9,9c3.7,5.6,6.1,17.5,7,34.5c0.2,3.7,0.3,7.3,0.3,10.5
			l-5.6-11.8v28.2V1146.3z"/>
		<path class="st2" d="M394.1,1022.7c0,0,28.3,3.1,27.4-3.7C420.5,1012.2,394.1,1022.7,394.1,1022.7z"/>
		<path class="st2" d="M512,1052.2c3.9,0,7.1-3.2,7.1-7.1s-3.2-7.1-7.1-7.1c-3.9,0-7.1,3.2-7.1,7.1S508.1,1052.2,512,1052.2z"/>
	</g>
</g>
</svg>
