<?xml version="1.0" encoding="utf-8"?>
<!-- Generator: Adobe Illustrator 22.0.0, SVG Export Plug-In . SVG Version: 6.00 Build 0)  -->
<svg version="1.1" id="Layer_1" xmlns="http://www.w3.org/2000/svg" xmlns:xlink="http://www.w3.org/1999/xlink" x="0px" y="0px"
	 viewBox="0 0 1000 250" style="enable-background:new 0 0 1000 250;" xml:space="preserve">
<style type="text/css">
	.st0{fill:#fdb919;}
	.st1{fill:white;}
</style>
<polygon class="st0" points="717.1,116.2 717.1,116.2 746,110.4 702.4,203.9 786.3,86.2 761.7,92.1 793.3,17 "/>
<g>
	<path class="st0" d="M250.7,58.6h23.4v64.2h41v20.6h-64.5V58.6z"/>
	<path class="st0" d="M325.9,58.6h23.6v84.8h-23.6V58.6z"/>
	<path class="st0" d="M362.1,101.4v-0.3c0-24.7,19.4-44,45.6-44c14.9,0,25.4,4.6,34.5,12.3l-13.9,16.6c-6-5.1-12.2-8-20.4-8
		c-12.3,0-21.7,10.3-21.7,23.3v0.3c0,13.7,9.6,23.4,23,23.4c5.7,0,10-1.1,13.6-3.6v-10.3H406V93.9h39v38.2c-9,7.4-21.4,13-36.9,13
		C381.8,145.1,362.1,126.9,362.1,101.4z"/>
	<path class="st0" d="M458,58.6h23.4v31.7h30.3V58.6h23.4v84.8h-23.4v-32.2h-30.2v32.2h-23.4V58.6H458z"/>
	<path class="st0" d="M571,79.2h-25.4V58.6h74.3v20.6h-25.4v64.2H571V79.2L571,79.2z"/>
	<path class="st0" d="M630.2,58.6H652l34.9,44.7V58.6h23.3v84.8h-20.6l-36.2-46.5v46.5h-23.3V58.6z"/>
	<path class="st0" d="M792.3,58.6h21.9l34.9,44.7V58.6h23.3v84.8h-20.6l-36.2-46.5v46.5h-23.3V58.6z"/>
	<path class="st0" d="M884.5,101.4v-0.3c0-24.7,19.4-44,45.6-44c14.9,0,25.4,4.6,34.5,12.3l-13.9,16.6c-6-5.1-12.2-8-20.4-8
		c-12.3,0-21.7,10.3-21.7,23.3v0.3c0,13.7,9.6,23.4,23,23.4c5.7,0,10-1.1,13.6-3.6v-10.3h-16.7V93.9h39v38.2c-9,7.4-21.4,13-36.9,13
		C904.2,145.1,884.5,126.9,884.5,101.4z"/>
	<path class="st1" d="M251.4,174h7l22.9,29.6V174h7.4v42.6h-6.3l-23.6-30.5v30.5h-7.4V174z"/>
	<path class="st1" d="M309.8,174h31.6v6.7h-24.2v11.2h21.4v6.7h-21.4V210h24.4v6.7h-32V174H309.8z"/>
	<path class="st1" d="M371.1,180.8h-13.6v-7h34.6v7h-13.6v35.7h-7.6v-35.7H371.1z"/>
	<path class="st1" d="M406.8,174h8.1l10.2,31.6l10.4-31.7h6.3l10.4,31.7l10.2-31.6h7.9l-14.9,43H449l-10.4-30.7L428.1,217h-6.4
		L406.8,174z"/>
	<path class="st1" d="M484,195.4L484,195.4c0-12.2,9.3-22.2,22.4-22.2c13.2,0,22.3,10,22.3,22v0.1c0,12-9.3,22-22.4,22
		C493.2,217.4,484,207.4,484,195.4z M520.8,195.4L520.8,195.4c0-8.4-6-15.3-14.6-15.3c-8.4,0-14.4,6.7-14.4,15v0.1
		c0,8.3,6,15.2,14.6,15.2C514.9,210.4,520.8,203.7,520.8,195.4z"/>
	<path class="st1" d="M547.8,174h19c5.4,0,9.6,1.6,12.3,4.3c2.3,2.3,3.6,5.4,3.6,9.2v0.1c0,7-4.1,11.3-10.2,12.9l11.6,16.2h-8.9
		l-10.4-14.9h-9.4v14.9h-7.4V174H547.8z M566.2,195.1c5.4,0,8.7-2.9,8.7-7.1v-0.1c0-4.6-3.3-7-8.9-7h-10.9v14.3H566.2z"/>
	<path class="st1" d="M601.8,174h7.4v21.4l20.3-21.4h9.2l-17.6,18.3l18.6,24.3h-9.2L616,197.4l-6.7,6.9v12.4h-7.4V174z"/>
	<path class="st1" d="M681.6,210.4l4.6-5.4c4.1,3.6,8.1,5.6,13.4,5.6c4.6,0,7.6-2.1,7.6-5.4v0c0-3-1.7-4.7-9.6-6.6
		c-9.2-2.1-14.2-4.9-14.2-12.7v-0.1c0-7.3,6.1-12.4,14.6-12.4c6.3,0,11.2,1.9,15.4,5.4l-4,5.7c-3.9-2.9-7.7-4.4-11.6-4.4
		c-4.4,0-7,2.3-7,5v0.1c0,3.3,2,4.7,10.2,6.7c9,2.1,13.7,5.4,13.7,12.4v0.1c0,8-6.3,12.7-15.3,12.7
		C692.9,217.3,686.6,215,681.6,210.4z"/>
	<path class="st1" d="M743.1,180.8h-13.6v-7h34.6v7h-13.6v35.7H743v-35.7H743.1z"/>
	<path class="st1" d="M777.8,195.4L777.8,195.4c0-12.2,9.3-22.2,22.4-22.2s22.3,10,22.3,22v0.1c0,12-9.3,22-22.4,22
		S777.8,207.4,777.8,195.4z M814.7,195.4L814.7,195.4c0-8.4-6-15.3-14.6-15.3c-8.4,0-14.4,6.7-14.4,15v0.1c0,8.3,6,15.2,14.6,15.2
		C808.7,210.4,814.7,203.7,814.7,195.4z"/>
	<path class="st1" d="M841.6,174h19c5.4,0,9.6,1.6,12.3,4.3c2.3,2.3,3.6,5.4,3.6,9.2v0.1c0,7-4.1,11.3-10.2,12.9l11.6,16.2h-8.9
		l-10.4-14.9h-9.4v14.9h-7.4V174H841.6z M860.2,195.1c5.4,0,8.7-2.9,8.7-7.1v-0.1c0-4.6-3.3-7-8.9-7h-10.9v14.3H860.2z"/>
	<path class="st1" d="M895.8,174h31.6v6.7h-24.2v11.2h21.4v6.7h-21.4V210h24.6v6.7h-32V174z"/>
	<path class="st1" d="M943.8,210.4l4.6-5.4c4.1,3.6,8.1,5.6,13.4,5.6c4.6,0,7.6-2.1,7.6-5.4v0c0-3-1.7-4.7-9.6-6.6
		c-9.2-2.1-14.2-4.9-14.2-12.7v-0.1c0-7.3,6.1-12.4,14.6-12.4c6.3,0,11.2,1.9,15.4,5.4l-4,5.7c-3.9-2.9-7.7-4.4-11.6-4.4
		c-4.4,0-7,2.3-7,5v0.1c0,3.3,2,4.7,10.2,6.7c9,2.1,13.7,5.4,13.7,12.4v0.1c0,8-6.3,12.7-15.3,12.7C955.1,217.3,949,215,943.8,210.4
		z"/>
</g>
<g>
	<path class="st0" d="M113,114.9l-4.9,19.6c5.6,1.4,22.7,7,25.4-4.1C136.5,118.9,118.6,116.4,113,114.9z"/>
	<path class="st0" d="M135.2,56.5c-48-12-96.8,17.3-108.7,65.3c-12,48,17.3,96.8,65.3,108.7c48,12,96.8-17.3,108.7-65.3
		C212.5,117.1,183.2,68.3,135.2,56.5z M153.1,130.7c-1.3,8.7-6.1,13-12.6,14.4c8.9,4.6,13.3,11.6,9,23.9
		c-5.3,15.2-17.9,16.4-34.7,13.3l-4,16.3l-9.9-2.4l4-16.2c-2.6-0.6-5.1-1.3-7.9-2l-4,16.2l-9.9-2.4l4-16.3c-2.3-0.6-4.6-1.1-7-1.9
		l-12.9-3.1l4.9-11.3c0,0,7.3,1.9,7.1,1.7c2.7,0.7,4-1.1,4.6-2.3c11-44.3,0,0,11-44.3c0.1-2.1-0.6-4.7-4.6-5.7
		c0.1-0.1-7.1-1.7-7.1-1.7l2.6-10.6l13.6,3.4l0,0c2,0.6,4.1,1,6.3,1.4l4-16.2l9.9,2.4l-4,15.9c2.6,0.6,5.3,1.1,7.9,1.9l3.9-15.7
		l9.9,2.4l-4,16.2C145.8,112.4,154.8,118.8,153.1,130.7z"/>
	<path class="st0" d="M105.6,144.5l-5.4,21.7c6.7,1.7,27.3,8.3,30.3-4C133.8,149.4,112.3,146.1,105.6,144.5z"/>
</g>
</svg>

