<?xml version="1.0" encoding="UTF-8" standalone="no"?>
<!-- Created with Inkscape (http://www.inkscape.org/) -->

<svg
   xmlns:dc="http://purl.org/dc/elements/1.1/"
   xmlns:cc="http://creativecommons.org/ns#"
   xmlns:rdf="http://www.w3.org/1999/02/22-rdf-syntax-ns#"
   xmlns:svg="http://www.w3.org/2000/svg"
   xmlns="http://www.w3.org/2000/svg"
   version="1.1"
   width="100%"
   height="100%"
   viewBox="0 0 47.5 47.5"
   id="svg2"
   xml:space="preserve"><metadata
     id="metadata3051"><rdf:RDF><cc:Work
         rdf:about=""><dc:format>image/svg+xml</dc:format><dc:type
           rdf:resource="http://purl.org/dc/dcmitype/StillImage" /><dc:title></dc:title></cc:Work></rdf:RDF></metadata><defs
     id="defs6"><clipPath
       id="clipPath18"><path
         d="M 0,38 38,38 38,0 0,0 0,38 z"
         id="path20" /></clipPath></defs><g
     id="g3830"><g
       transform="matrix(1.25,0,0,-1.25,0,47.5)"
       id="g12"
       style="fill:#008000;fill-opacity:1;stroke:none"><g
         id="g14"
         style="fill:#008000;fill-opacity:1;stroke:none"><g
           clip-path="url(#clipPath18)"
           id="g16"
           style="fill:#008000;fill-opacity:1;stroke:none"><g
             transform="translate(37,5)"
             id="g22"
             style="fill:#008000;fill-opacity:1;stroke:none"><path
               d="m -32,32 c -2.209,0 -4,-1.791 -4,-4 l 0,-28 c 0,-2.209 1.791,-4 4,-4 l 28,0 c 2.209,0 4,1.791 4,4 l 0,28 c 0,2.209 -1.791,4 -4,4 l -28,0 z"
               id="path3828"
               style="fill:#008000;fill-opacity:1;fill-rule:nonzero;stroke:none" /><path
               d="m -7,23.5 c 0.6397496,0 1.2865,-0.237 1.775,-0.725 0.976,-0.977 0.976,-2.573 0,-3.55 l -15.5,-15.5 C -21.213,3.237 -21.86,3 -22.5,3 c -0.64,0 -1.287,0.237 -1.775,0.725 l -6.5,6.5 c -0.976,0.977 -0.976,2.573 0,3.55 0.976,0.976 2.574,0.976 3.55,0 l 4.725,-4.75 13.725,13.75 C -8.2865,23.263 -7.6397496,23.5 -7,23.5 z"
               id="path24"
               style="fill:#ffffff;fill-opacity:1;fill-rule:nonzero;stroke:none" /></g><g
             transform="translate(14.5,8)"
             id="g26"
             style="fill:#008000;fill-opacity:1;stroke:none" /></g></g></g></g></svg>