<?xml version="1.0" encoding="utf-8"?>
<!-- Generator: Adobe Illustrator 22.0.0, SVG Export Plug-In . SVG Version: 6.00 Build 0)  -->
<svg version="1.1" id="Layer_1" xmlns="http://www.w3.org/2000/svg" xmlns:xlink="http://www.w3.org/1999/xlink" x="0px" y="0px"
	 viewBox="0 0 792 612" style="enable-background:new 0 0 792 612;" xml:space="preserve">
<style type="text/css">
	.st0{fill:#F0C718;}
	.st1{fill:#00809D;}
	.st2{fill:#FFFFFF;}
</style>
<polygon class="st0" points="513.4,334.3 513.4,334.3 578.7,321.3 509,490.6 677,266.3 621.5,279.3 678.1,135 "/>
<polygon class="st0" points="-421.6,292.3 -421.6,292.3 -403.3,288.6 -430.9,347.7 -377.8,273.3 -393.3,277 -373.4,229.6 "/>
<g>
	<path class="st1" d="M120.4,207.2H178v157.2h100.5v50.4H120.4V207.2z"/>
	<path class="st1" d="M291.2,207.2h53.7l85.4,109.7V207.2h56.9v207.6h-50.4l-88.7-113.9v113.9h-56.9V207.2z"/>
	<path class="st1" d="M496.5,384l32-38.3c20.5,16.3,43.3,24.9,67.3,24.9c15.4,0,23.7-5.3,23.7-14.2v-0.6c0-8.6-6.8-13.3-35-19.9
		c-44.2-10.1-78.3-22.5-78.3-65.2v-0.6c0-38.6,30.5-66.4,80.4-66.4c35.3,0,62.9,9.5,85.4,27.6l-28.8,40.6
		c-19-13.3-39.7-20.5-58.1-20.5c-13.9,0-20.8,5.9-20.8,13.3v0.6c0,9.5,7.1,13.6,35.9,20.2c47.7,10.4,77.4,25.8,77.4,64.7v0.6
		c0,42.4-33.5,67.6-83.9,67.6C557,418.4,522,406.8,496.5,384z"/>
</g>
<g>
	<path class="st0" d="M-716.3,255.9h14.8v40.6h25.9v13h-40.8V255.9z"/>
	<path class="st0" d="M-668.8,255.9h14.9v53.6h-14.9V255.9z"/>
	<path class="st0" d="M-645.9,282.9v-0.2c0-15.6,12.2-27.9,28.9-27.9c9.4,0,16.1,2.9,21.7,7.8l-8.7,10.5c-3.8-3.2-7.7-5.1-12.9-5.1
		c-7.7,0-13.7,6.5-13.7,14.7v0.2c0,8.6,6,14.8,14.5,14.8c3.6,0,6.4-0.8,8.6-2.2v-6.5h-10.6v-10.9h24.6v24.1
		c-5.7,4.7-13.5,8.3-23.3,8.3C-633.5,310.6-645.9,299.1-645.9,282.9z"/>
	<path class="st0" d="M-585.2,255.9h14.8V276h19.1v-20.1h14.8v53.6h-14.8v-20.4h-19.1v20.4h-14.8V255.9z"/>
	<path class="st0" d="M-513.9,268.9H-530v-13h47v13h-16.1v40.6h-14.8V268.9z"/>
	<path class="st0" d="M-476.5,255.9h13.9l22,28.3v-28.3h14.7v53.6h-13l-22.9-29.4v29.4h-14.7V255.9z"/>
	<path class="st0" d="M-374,255.9h13.9l22,28.3v-28.3h14.7v53.6h-13l-22.9-29.4v29.4H-374V255.9z"/>
	<path class="st0" d="M-315.8,282.9v-0.2c0-15.6,12.2-27.9,28.9-27.9c9.4,0,16.1,2.9,21.7,7.8l-8.7,10.5c-3.8-3.2-7.7-5.1-12.9-5.1
		c-7.7,0-13.7,6.5-13.7,14.7v0.2c0,8.6,6,14.8,14.5,14.8c3.6,0,6.4-0.8,8.6-2.2v-6.5H-288v-10.9h24.6v24.1
		c-5.7,4.7-13.5,8.3-23.3,8.3C-303.3,310.6-315.8,299.1-315.8,282.9z"/>
	<path class="st1" d="M-715.8,328.8h4.4l14.5,18.7v-18.7h4.7v27h-4l-14.9-19.2v19.2h-4.7V328.8z"/>
	<path class="st1" d="M-679,328.8h20v4.2h-15.3v7h13.5v4.2h-13.5v7.2h15.5v4.2H-679V328.8z"/>
	<path class="st1" d="M-640.2,333.2h-8.6v-4.4h21.9v4.4h-8.6v22.6h-4.8V333.2z"/>
	<path class="st1" d="M-617.6,328.8h5.1l6.4,20l6.6-20.1h4l6.6,20.1l6.4-20h5l-9.4,27.2h-4.1l-6.6-19.4l-6.6,19.4h-4.1L-617.6,328.8
		z"/>
	<path class="st1" d="M-568.9,342.3L-568.9,342.3c0-7.7,5.9-14,14.2-14c8.3,0,14.1,6.3,14.1,13.9v0.1c0,7.6-5.9,14-14.2,14
		C-563.1,356.2-568.9,349.9-568.9,342.3z M-545.6,342.3L-545.6,342.3c0-5.3-3.8-9.7-9.2-9.7c-5.4,0-9.1,4.3-9.1,9.5v0.1
		c0,5.2,3.8,9.6,9.2,9.6C-549.3,351.9-545.6,347.6-545.6,342.3z"/>
	<path class="st1" d="M-528.6,328.8h12c3.4,0,6.1,1,7.8,2.7c1.4,1.5,2.2,3.5,2.2,5.8v0.1c0,4.4-2.7,7.1-6.4,8.2l7.3,10.2h-5.6
		l-6.6-9.4h-5.9v9.4h-4.7V328.8z M-516.9,342.2c3.4,0,5.6-1.8,5.6-4.5v-0.1c0-2.9-2.1-4.5-5.6-4.5h-6.9v9.1H-516.9z"/>
	<path class="st1" d="M-494.4,328.8h4.7v13.6l12.8-13.6h5.8l-11.2,11.6l11.7,15.4h-5.7l-9.2-12.1l-4.2,4.3v7.8h-4.7V328.8z"/>
	<path class="st1" d="M-444,351.8l2.9-3.4c2.6,2.2,5.2,3.5,8.5,3.5c2.9,0,4.8-1.3,4.8-3.4v-0.1c0-1.9-1.1-3-6.1-4.1
		c-5.7-1.4-9-3.1-9-8.1v-0.1c0-4.6,3.9-7.8,9.2-7.8c3.9,0,7.1,1.2,9.8,3.4l-2.5,3.6c-2.4-1.8-4.9-2.8-7.3-2.8
		c-2.8,0-4.4,1.4-4.4,3.2v0.1c0,2.1,1.2,3,6.4,4.2c5.7,1.4,8.7,3.4,8.7,7.9v0.1c0,5.1-4,8.1-9.6,8.1
		C-436.9,356.2-440.8,354.7-444,351.8z"/>
	<path class="st1" d="M-405.1,333.2h-8.6v-4.4h21.9v4.4h-8.6v22.6h-4.8V333.2z"/>
	<path class="st1" d="M-383.1,342.3L-383.1,342.3c0-7.7,5.9-14,14.2-14s14.1,6.3,14.1,13.9v0.1c0,7.6-5.9,14-14.2,14
		C-377.3,356.2-383.1,349.9-383.1,342.3z M-359.9,342.3L-359.9,342.3c0-5.3-3.8-9.7-9.2-9.7c-5.4,0-9.1,4.3-9.1,9.5v0.1
		c0,5.2,3.8,9.6,9.2,9.6C-363.6,351.9-359.9,347.6-359.9,342.3z"/>
	<path class="st1" d="M-342.8,328.8h12c3.4,0,6.1,1,7.8,2.7c1.4,1.5,2.2,3.5,2.2,5.8v0.1c0,4.4-2.7,7.1-6.4,8.2l7.3,10.2h-5.6
		l-6.6-9.4h-5.9v9.4h-4.7V328.8z M-331.1,342.2c3.4,0,5.6-1.8,5.6-4.5v-0.1c0-2.9-2.1-4.5-5.6-4.5h-6.9v9.1H-331.1z"/>
	<path class="st1" d="M-308.6,328.8h20v4.2h-15.3v7h13.5v4.2h-13.5v7.2h15.5v4.2h-20.2V328.8z"/>
	<path class="st1" d="M-278.3,351.8l2.9-3.4c2.6,2.2,5.2,3.5,8.5,3.5c2.9,0,4.8-1.3,4.8-3.4v-0.1c0-1.9-1.1-3-6.1-4.1
		c-5.7-1.4-9-3.1-9-8.1v-0.1c0-4.6,3.9-7.8,9.2-7.8c3.9,0,7.1,1.2,9.8,3.4l-2.5,3.6c-2.4-1.8-4.9-2.8-7.3-2.8
		c-2.8,0-4.4,1.4-4.4,3.2v0.1c0,2.1,1.2,3,6.4,4.2c5.7,1.4,8.7,3.4,8.7,7.9v0.1c0,5.1-4,8.1-9.6,8.1
		C-271.1,356.2-275,354.7-278.3,351.8z"/>
</g>
<polygon class="st0" points="-208.8,-159.1 -194.1,-159.1 -203.9,-139.4 -185.9,-139.4 -212.7,-105 -207.8,-124.6 -225.2,-124.6 "/>
<path class="st0" d="M617.3,271.9l4.2,7.4l55.5-13.1L509,490.6l69.7-169.3l-65.3,13.1l63.9-77.3C577.3,257,608.3,246.8,617.3,271.9z
	"/>
<g id="g16" transform="scale(0.015625)">
	<path id="coin" class="st0" d="M-47873.9,20685.3c-484.6,1943.9-2453.5,3126.9-4397.6,2642.2
		c-1943.3-484.6-3126.4-2453.6-2641.5-4397.4c484.4-1944.1,2453.3-3127.3,4396.8-2642.6
		C-48572.2,16772.1-47389.3,18741.3-47873.9,20685.3L-47873.9,20685.3z"/>
	<path id="symbol" inkscape:connector-curvature="0" sodipodi:nodetypes="ccccccccccccccccccccccccccccccccccccccc" class="st2" d="
		M-49794.2,19290.6c72.2-482.8-295.4-742.4-798.1-915.5l163.1-654.1l-398.1-99.2l-158.8,636.8c-104.7-26.1-212.2-50.7-319-75.1
		l159.9-641l-397.9-99.2l-163.2,653.8c-86.6-19.7-171.7-39.2-254.2-59.8l0.5-2l-549-137.1l-105.9,425.2c0,0,295.4,67.7,289.2,71.9
		c161.2,40.3,190.4,147,185.5,231.5c-446.8,1791.7,0,0-446.8,1791.7c-19.7,49-69.7,122.5-182.4,94.6c4,5.8-289.4-72.2-289.4-72.2
		l-197.6,455.7l518.1,129.2c96.4,24.2,190.8,49.4,283.8,73.3l-164.8,661.5l397.7,99.2l163.2-654.5c108.6,29.5,214.1,56.7,317.3,82.3
		l-162.6,651.4l398.1,99.2l164.8-660.3c678.9,128.5,1189.4,76.7,1404.3-537.4c173.2-494.4-8.6-779.6-365.8-965.5
		C-50042.5,19815.1-49846.5,19644-49794.2,19290.6L-49794.2,19290.6z M-50703.9,20566.1c-123,494.4-955.4,227.1-1225.3,160.1
		l218.6-876.4C-51440.7,19917.2-50575.3,20050.5-50703.9,20566.1z M-50580.7,19283.4c-112.3,449.7-805.1,221.2-1029.8,165.2
		l198.2-794.9C-51187.6,18709.8-50463.8,18814.3-50580.7,19283.4z"/>
</g>
</svg>
