<?xml version="1.0" encoding="utf-8"?>
<!-- Generator: Adobe Illustrator 21.0.0, SVG Export Plug-In . SVG Version: 6.00 Build 0)  -->
<svg version="1.1" id="Layer_1" xmlns="http://www.w3.org/2000/svg" xmlns:xlink="http://www.w3.org/1999/xlink" x="0px" y="0px"
	 viewBox="0 0 792 612" style="enable-background:new 0 0 792 612;" xml:space="preserve" class="lns-logo">
<style type="text/css">
	.st0{fill:#FFF;}
    .st0:hover {
  fill:#F0C718;
}

    .st1:hover {
  fill:#00809D;
}
	.st1{fill:#FFF;}
</style>
<polygon class="st0" points="513.4,334.3 513.4,334.3 578.7,321.3 509,490.6 677,266.3 621.5,279.3 678.1,135 "/>
<g>
	<path class="st1" d="M120.4,207.2H178v157.2h100.5v50.4H120.4V207.2z"/>
	<path class="st1" d="M291.2,207.2h53.7l85.4,109.7V207.2h56.9v207.6h-50.4l-88.7-113.9v113.9h-56.9V207.2z"/>
	<path class="st1" d="M496.5,384l32-38.3c20.5,16.3,43.3,24.9,67.3,24.9c15.4,0,23.7-5.3,23.7-14.2v-0.6c0-8.6-6.8-13.3-35-19.9
		c-44.2-10.1-78.3-22.5-78.3-65.2v-0.6c0-38.6,30.5-66.4,80.4-66.4c35.3,0,62.9,9.5,85.4,27.6l-28.8,40.6
		c-19-13.3-39.7-20.5-58.1-20.5c-13.9,0-20.8,5.9-20.8,13.3v0.6c0,9.5,7.1,13.6,35.9,20.2c47.7,10.4,77.4,25.8,77.4,64.7v0.6
		c0,42.4-33.5,67.6-83.9,67.6C557,418.4,522,406.8,496.5,384z"/>
</g>
<path class="st0" d="M617.3,271.9l4.2,7.4l55.5-13.1L509,490.6l69.7-169.3l-65.3,13.1l63.9-77.3C577.3,257,608.3,246.8,617.3,271.9z
	"/>
</svg>
