<svg xmlns="http://www.w3.org/2000/svg" viewBox="0 0 179.25 40"><defs><style>.cls-1{fill:#383838;}.cls-2{font-size:10px;font-family:Roboto-Bold, Roboto;font-weight:700;}.cls-2,.cls-6{fill:#fff;}.cls-3{letter-spacing:-0.006em;}.cls-4{letter-spacing:-0.042em;}.cls-5{fill:#fdb919;}</style></defs><title>snippet</title><g id="Layer_2" data-name="Layer 2"><path class="cls-1" d="M168.25,0H86V40h82.25a12.035,12.035,0,0,0,12-12V12A12.035,12.035,0,0,0,168.25,0Z" transform="translate(-1)"/><path class="cls-1" d="M13,0A12.035,12.035,0,0,0,1,12V28A12.035,12.035,0,0,0,13,40H87V0Z" transform="translate(-1)"/></g><g id="Layer_4" data-name="Layer 4"><text class="cls-2" transform="translate(3.802 24.259)"><tspan class="cls-3">V</tspan><tspan class="cls-4" x="6.475" y="0">O</tspan><tspan x="12.964" y="0">TE FOR US ON</tspan></text></g><g id="Layer_3" data-name="Layer 3"><polygon class="cls-5" points="144.428 18.017 144.428 18.017 147.929 17.314 142.647 28.641 152.811 14.383 149.831 15.098 153.659 6 144.428 18.017"/><path class="cls-5" d="M88.929,11.039h2.835v7.777h4.967v2.5H88.917V11.039Z" transform="translate(-1)"/><path class="cls-5" d="M98.039,11.039H100.9V21.312H98.039Z" transform="translate(-1)"/><path class="cls-5" d="M102.424,16.224v-.036a5.324,5.324,0,0,1,5.524-5.33,6.075,6.075,0,0,1,4.179,1.49l-1.684,2.011a3.615,3.615,0,0,0-2.471-.97,2.7,2.7,0,0,0-2.629,2.823v.036a2.7,2.7,0,0,0,2.787,2.835,2.756,2.756,0,0,0,1.647-.436V17.4h-2.035V15.316h4.724v4.627A6.94,6.94,0,0,1,108,21.518,5.271,5.271,0,0,1,102.424,16.224Z" transform="translate(-1)"/><path class="cls-5" d="M114.041,11.039h2.835v3.84h3.67v-3.84h2.835V21.312h-2.835v-3.9h-3.658v3.9h-2.835V11.039Z" transform="translate(-1)"/><path class="cls-5" d="M127.73,13.535h-3.077v-2.5h9v2.5h-3.077v7.777H127.73V13.535Z" transform="translate(-1)"/><path class="cls-5" d="M134.9,11.039h2.641l4.228,5.415V11.039h2.822V21.312h-2.5l-4.385-5.633v5.633h-2.823V11.039Z" transform="translate(-1)"/><path class="cls-5" d="M154.538,11.039h2.653l4.228,5.415V11.039h2.822V21.312h-2.5l-4.386-5.633v5.633h-2.822V11.039Z" transform="translate(-1)"/><path class="cls-5" d="M165.707,16.224v-.036a5.324,5.324,0,0,1,5.524-5.33,6.075,6.075,0,0,1,4.179,1.49l-1.684,2.011a3.619,3.619,0,0,0-2.471-.97,2.7,2.7,0,0,0-2.629,2.823v.036a2.7,2.7,0,0,0,2.786,2.835,2.758,2.758,0,0,0,1.648-.436V17.4h-2.023V15.316h4.724v4.627a6.94,6.94,0,0,1-4.47,1.575A5.275,5.275,0,0,1,165.707,16.224Z" transform="translate(-1)"/><path class="cls-6" d="M89.014,25.019h.848L92.636,28.6V25.019h.9v5.16h-.763L89.91,26.485v3.694h-.9Z" transform="translate(-1)"/><path class="cls-6" d="M96.088,25.019h3.828v.811H96.985v1.357h2.592V28H96.985V29.38h2.956v.811H96.064V25.019Z" transform="translate(-1)"/><path class="cls-6" d="M103.514,25.842h-1.647V25h4.191v.847h-1.647v4.325h-.921V25.842Z" transform="translate(-1)"/><path class="cls-6" d="M107.839,25.019h.981l1.236,3.828,1.26-3.84h.763l1.26,3.84,1.235-3.828h.957l-1.805,5.209h-.775l-1.26-3.719-1.272,3.719h-.775Z" transform="translate(-1)"/><path class="cls-6" d="M117.191,27.611h0a2.708,2.708,0,0,1,5.415-.024V27.6a2.646,2.646,0,0,1-2.714,2.665A2.618,2.618,0,0,1,117.191,27.611Zm4.458,0h0a1.776,1.776,0,0,0-1.769-1.853,1.746,1.746,0,0,0-1.744,1.817v.012a1.772,1.772,0,0,0,1.768,1.841A1.739,1.739,0,0,0,121.649,27.611Z" transform="translate(-1)"/><path class="cls-6" d="M124.919,25.019h2.3a2.055,2.055,0,0,1,1.49.521,1.521,1.521,0,0,1,.436,1.114v.012a1.527,1.527,0,0,1-1.235,1.563l1.405,1.962h-1.078l-1.26-1.8H125.84v1.8h-.9V25.019Zm2.229,2.556c.655,0,1.054-.352,1.054-.86V26.7c0-.558-.4-.848-1.078-.848H125.8v1.732h1.344Z" transform="translate(-1)"/><path class="cls-6" d="M131.461,25.019h.9v2.592l2.459-2.592h1.115L133.8,27.236l2.253,2.943h-1.114l-1.757-2.326-.812.836v1.5h-.9V25.019Z" transform="translate(-1)"/><path class="cls-6" d="M141.128,29.428l.557-.654a2.336,2.336,0,0,0,1.623.678c.558,0,.921-.254.921-.654h0c0-.363-.206-.569-1.163-.8-1.114-.255-1.72-.594-1.72-1.539v-.012a1.586,1.586,0,0,1,1.768-1.5,2.777,2.777,0,0,1,1.866.654l-.485.691a2.338,2.338,0,0,0-1.405-.533c-.533,0-.848.278-.848.605v.013c0,.4.243.569,1.236.811,1.09.255,1.659.654,1.659,1.5V28.7c0,.969-.763,1.539-1.853,1.539A3.024,3.024,0,0,1,141.128,29.428Z" transform="translate(-1)"/><path class="cls-6" d="M148.578,25.842H146.93V25h4.192v.847h-1.648v4.325h-.908V25.842Z" transform="translate(-1)"/><path class="cls-6" d="M152.781,27.611h0a2.708,2.708,0,0,1,5.415-.024V27.6a2.708,2.708,0,0,1-5.415.012Zm4.47,0h0a1.775,1.775,0,0,0-1.768-1.853,1.747,1.747,0,0,0-1.745,1.817v.012a1.772,1.772,0,0,0,1.769,1.841A1.746,1.746,0,0,0,157.251,27.611Z" transform="translate(-1)"/><path class="cls-6" d="M160.51,25.019h2.3a2.055,2.055,0,0,1,1.49.521,1.525,1.525,0,0,1,.436,1.114v.012a1.528,1.528,0,0,1-1.236,1.563l1.405,1.962h-1.078l-1.26-1.8h-1.138v1.8h-.9V25.019Zm2.253,2.556c.654,0,1.054-.352,1.054-.86V26.7c0-.558-.4-.848-1.078-.848h-1.32v1.732h1.344Z" transform="translate(-1)"/><path class="cls-6" d="M167.076,25.019H170.9v.811h-2.932v1.357h2.592V28h-2.592V29.38h2.98v.811h-3.876V25.019Z" transform="translate(-1)"/><path class="cls-6" d="M172.89,29.428l.558-.654a2.334,2.334,0,0,0,1.623.678c.557,0,.92-.254.92-.654h0c0-.363-.205-.569-1.162-.8-1.115-.255-1.721-.594-1.721-1.539v-.012a1.586,1.586,0,0,1,1.769-1.5,2.779,2.779,0,0,1,1.866.654l-.485.691a2.34,2.34,0,0,0-1.405-.533c-.533,0-.848.278-.848.605v.013c0,.4.242.569,1.235.811,1.091.255,1.66.654,1.66,1.5V28.7c0,.969-.763,1.539-1.853,1.539A3.065,3.065,0,0,1,172.89,29.428Z" transform="translate(-1)"/></g></svg>