<?xml version="1.0" encoding="utf-8"?>
<!-- Generator: Adobe Illustrator 22.0.0, SVG Export Plug-In . SVG Version: 6.00 Build 0)  -->
<svg version="1.1" xmlns="http://www.w3.org/2000/svg" xmlns:xlink="http://www.w3.org/1999/xlink" x="0px" y="0px"
	 viewBox="0 0 180 40" style="enable-background:new 0 0 180 40;" xml:space="preserve">
<style type="text/css">
	.st0{fill:#FDB919;}
	.st1{fill:#383838;}
	.st2{fill:#FFFFFF;}
</style>
<g id="Layer_2">
	<g>
		<path class="st0" d="M11.6,0C5.2,0,0,5.4,0,12v16c0,6.6,5.2,12,11.6,12H83V0H11.6z"/>
		<path class="st1" d="M167.9,0H83v40h84.9c6.8,0,12.4-5.4,12.4-12V12C180.3,5.4,174.7,0,167.9,0z"/>
	</g>
</g>
<g id="Layer_4">
	<g>
		<path class="st1" d="M8.7,21.7l1.5-4.8h1.5l-2.2,6.4H8.1l-2.2-6.4h1.5L8.7,21.7z"/>
		<path class="st1" d="M17.5,20.2c0,0.5-0.1,0.9-0.2,1.3s-0.3,0.7-0.6,1s-0.5,0.5-0.9,0.6c-0.3,0.1-0.7,0.2-1.1,0.2
			s-0.8-0.1-1.1-0.2c-0.3-0.1-0.6-0.4-0.9-0.6c-0.2-0.3-0.4-0.6-0.6-1S12,20.7,12,20.2v-0.3c0-0.5,0.1-0.9,0.2-1.3
			c0.1-0.4,0.3-0.7,0.6-1s0.5-0.5,0.9-0.6c0.3-0.1,0.7-0.2,1.1-0.2s0.8,0.1,1.1,0.2c0.3,0.1,0.6,0.4,0.9,0.6s0.4,0.6,0.6,1
			s0.2,0.8,0.2,1.3V20.2z M16.1,19.9c0-0.7-0.1-1.2-0.4-1.5s-0.6-0.5-1-0.5s-0.8,0.2-1,0.5s-0.4,0.9-0.4,1.5v0.3
			c0,0.3,0,0.6,0.1,0.9c0.1,0.3,0.2,0.5,0.3,0.6c0.1,0.2,0.3,0.3,0.4,0.4c0.2,0.1,0.4,0.1,0.6,0.1c0.4,0,0.8-0.2,1-0.5
			s0.4-0.9,0.4-1.5V19.9z"/>
		<path class="st1" d="M22.9,17.9h-2v5.3h-1.3v-5.3h-1.9v-1.1h5.2V17.9z"/>
		<path class="st1" d="M27.5,20.5h-2.5v1.7h3v1.1h-4.3v-6.4h4.3v1.1h-3v1.5h2.5V20.5z"/>
		<path class="st1" d="M34.8,20.6h-2.5v2.6h-1.3v-6.4h4.2v1.1h-2.8v1.7h2.5V20.6z"/>
		<path class="st1" d="M41.1,20.2c0,0.5-0.1,0.9-0.2,1.3s-0.3,0.7-0.6,1s-0.5,0.5-0.9,0.6c-0.3,0.1-0.7,0.2-1.1,0.2
			s-0.8-0.1-1.1-0.2c-0.3-0.1-0.6-0.4-0.9-0.6c-0.2-0.3-0.4-0.6-0.6-1s-0.2-0.8-0.2-1.3v-0.3c0-0.5,0.1-0.9,0.2-1.3
			c0.1-0.4,0.3-0.7,0.6-1s0.5-0.5,0.9-0.6c0.3-0.1,0.7-0.2,1.1-0.2s0.8,0.1,1.1,0.2c0.3,0.1,0.6,0.4,0.9,0.6s0.4,0.6,0.6,1
			s0.2,0.8,0.2,1.3V20.2z M39.8,19.9c0-0.7-0.1-1.2-0.4-1.5s-0.6-0.5-1-0.5s-0.8,0.2-1,0.5S37,19.2,37,19.9v0.3c0,0.3,0,0.6,0.1,0.9
			c0.1,0.3,0.2,0.5,0.3,0.6c0.1,0.2,0.3,0.3,0.4,0.4c0.2,0.1,0.4,0.1,0.6,0.1c0.4,0,0.8-0.2,1-0.5s0.4-0.9,0.4-1.5V19.9z"/>
		<path class="st1" d="M44.4,20.9h-1.1v2.3h-1.3v-6.4h2.4c0.4,0,0.7,0,1,0.1c0.3,0.1,0.5,0.2,0.7,0.4c0.2,0.2,0.4,0.4,0.5,0.6
			s0.2,0.5,0.2,0.8c0,0.2,0,0.4-0.1,0.6s-0.1,0.4-0.2,0.5c-0.1,0.1-0.2,0.3-0.4,0.4s-0.3,0.2-0.5,0.3l1.4,2.6v0.1h-1.4L44.4,20.9z
			 M43.4,19.8h1.1c0.2,0,0.3,0,0.5-0.1c0.1,0,0.2-0.1,0.3-0.2c0.1-0.1,0.2-0.2,0.2-0.3c0-0.1,0.1-0.2,0.1-0.4c0-0.3-0.1-0.5-0.3-0.7
			c-0.2-0.2-0.4-0.3-0.8-0.3h-1.1V19.8z"/>
		<path class="st1" d="M54.9,16.9v4.2c0,0.4-0.1,0.7-0.2,1c-0.1,0.3-0.3,0.5-0.5,0.7s-0.5,0.3-0.8,0.4c-0.3,0.1-0.6,0.1-1,0.1
			c-0.4,0-0.7,0-1-0.1c-0.3-0.1-0.6-0.2-0.8-0.4s-0.4-0.4-0.5-0.7c-0.1-0.3-0.2-0.6-0.2-1v-4.2h1.3v4.2c0,0.4,0.1,0.7,0.3,0.9
			c0.2,0.2,0.5,0.3,0.8,0.3c0.4,0,0.6-0.1,0.8-0.3c0.2-0.2,0.3-0.5,0.3-0.9v-4.2H54.9z"/>
		<path class="st1" d="M59.3,21.6c0-0.1,0-0.2,0-0.3c0-0.1-0.1-0.2-0.2-0.2c-0.1-0.1-0.2-0.2-0.4-0.2c-0.2-0.1-0.4-0.2-0.6-0.2
			c-0.3-0.1-0.6-0.2-0.8-0.3c-0.3-0.1-0.5-0.3-0.7-0.4c-0.2-0.2-0.3-0.3-0.5-0.6s-0.2-0.5-0.2-0.7c0-0.3,0.1-0.5,0.2-0.7
			c0.1-0.2,0.3-0.4,0.5-0.6s0.5-0.3,0.7-0.4s0.6-0.1,1-0.1c0.4,0,0.7,0,1,0.1s0.5,0.2,0.7,0.4s0.4,0.4,0.5,0.6
			c0.1,0.2,0.2,0.5,0.2,0.8h-1.3c0-0.1,0-0.3-0.1-0.4c0-0.1-0.1-0.2-0.2-0.3s-0.2-0.1-0.3-0.2c-0.1,0-0.3-0.1-0.5-0.1
			c-0.2,0-0.3,0-0.5,0.1c-0.1,0-0.2,0.1-0.3,0.2c-0.1,0.1-0.1,0.1-0.2,0.2s-0.1,0.2-0.1,0.3c0,0.2,0.1,0.4,0.3,0.5
			c0.2,0.1,0.5,0.3,0.9,0.4c0.3,0.1,0.7,0.2,0.9,0.4s0.5,0.3,0.7,0.4c0.2,0.2,0.3,0.4,0.4,0.6s0.1,0.4,0.1,0.7
			c0,0.3-0.1,0.5-0.2,0.8c-0.1,0.2-0.3,0.4-0.5,0.6c-0.2,0.2-0.4,0.3-0.7,0.3c-0.3,0.1-0.6,0.1-1,0.1c-0.2,0-0.4,0-0.6-0.1
			c-0.2,0-0.4-0.1-0.6-0.2s-0.4-0.2-0.5-0.3c-0.2-0.1-0.3-0.3-0.4-0.4c-0.1-0.2-0.2-0.3-0.3-0.5c-0.1-0.2-0.1-0.4-0.1-0.7H57
			c0,0.2,0,0.4,0.1,0.5s0.1,0.2,0.3,0.3c0.1,0.1,0.2,0.1,0.4,0.2c0.2,0,0.3,0.1,0.5,0.1c0.2,0,0.3,0,0.4-0.1c0.1,0,0.2-0.1,0.3-0.2
			s0.1-0.1,0.2-0.2C59.3,21.8,59.3,21.7,59.3,21.6z"/>
		<path class="st1" d="M69,20.2c0,0.5-0.1,0.9-0.2,1.3s-0.3,0.7-0.6,1s-0.5,0.5-0.9,0.6c-0.3,0.1-0.7,0.2-1.1,0.2s-0.8-0.1-1.1-0.2
			c-0.3-0.1-0.6-0.4-0.9-0.6c-0.2-0.3-0.4-0.6-0.6-1s-0.2-0.8-0.2-1.3v-0.3c0-0.5,0.1-0.9,0.2-1.3c0.1-0.4,0.3-0.7,0.6-1
			s0.5-0.5,0.9-0.6c0.3-0.1,0.7-0.2,1.1-0.2s0.8,0.1,1.1,0.2c0.3,0.1,0.6,0.4,0.9,0.6s0.4,0.6,0.6,1s0.2,0.8,0.2,1.3V20.2z
			 M67.7,19.9c0-0.7-0.1-1.2-0.4-1.5s-0.6-0.5-1-0.5s-0.8,0.2-1,0.5s-0.4,0.9-0.4,1.5v0.3c0,0.3,0,0.6,0.1,0.9
			c0.1,0.3,0.2,0.5,0.3,0.6c0.1,0.2,0.3,0.3,0.4,0.4c0.2,0.1,0.4,0.1,0.6,0.1c0.4,0,0.8-0.2,1-0.5s0.4-0.9,0.4-1.5V19.9z"/>
		<path class="st1" d="M75.2,23.3h-1.3L71.3,19v4.2H70v-6.4h1.3l2.6,4.2v-4.2h1.3V23.3z"/>
	</g>
</g>
<g id="Layer_3">
	<polygon class="st0" points="145.4,18 145.4,18 148.9,17.3 143.6,28.6 153.8,14.4 150.8,15.1 154.7,6 	"/>
	<g>
		<path class="st0" d="M88.9,11h2.8v7.8h5v2.5h-7.8L88.9,11L88.9,11z"/>
		<path class="st0" d="M98,11h2.9v10.3H98V11z"/>
		<path class="st0" d="M102.4,16.2L102.4,16.2c0-3,2.4-5.4,5.5-5.4c1.8,0,3.1,0.6,4.2,1.5l-1.7,2c-0.7-0.6-1.5-1-2.5-1
			c-1.5,0-2.6,1.2-2.6,2.8v0c0,1.7,1.2,2.8,2.8,2.8c0.7,0,1.2-0.1,1.6-0.4v-1.2h-2v-2.1h4.7v4.6c-1.1,0.9-2.6,1.6-4.5,1.6
			C104.8,21.5,102.4,19.3,102.4,16.2z"/>
		<path class="st0" d="M114,11h2.8v3.8h3.7V11h2.8v10.3h-2.8v-3.9h-3.7v3.9h-2.8L114,11L114,11z"/>
		<path class="st0" d="M127.7,13.5h-3.1V11h9v2.5h-3.1v7.8h-2.8V13.5L127.7,13.5z"/>
		<path class="st0" d="M134.9,11h2.6l4.2,5.4V11h2.8v10.3h-2.5l-4.4-5.6v5.6h-2.8L134.9,11L134.9,11z"/>
		<path class="st0" d="M154.5,11h2.7l4.2,5.4V11h2.8v10.3h-2.5l-4.4-5.6v5.6h-2.8V11L154.5,11z"/>
		<path class="st0" d="M165.7,16.2L165.7,16.2c0-3,2.4-5.4,5.5-5.4c1.8,0,3.1,0.6,4.2,1.5l-1.7,2c-0.7-0.6-1.5-1-2.5-1
			c-1.5,0-2.6,1.2-2.6,2.8v0c0,1.7,1.2,2.8,2.8,2.8c0.7,0,1.2-0.1,1.6-0.4v-1.2h-2v-2.1h4.7v4.6c-1.1,0.9-2.6,1.6-4.5,1.6
			C168.1,21.5,165.7,19.3,165.7,16.2z"/>
		<path class="st2" d="M89,25h0.8l2.8,3.6V25h0.9v5.2h-0.8l-2.9-3.7v3.7H89V25z"/>
		<path class="st2" d="M96.1,25h3.8v0.8H97v1.4h2.6V28H97v1.4h3v0.8h-3.9L96.1,25L96.1,25z"/>
		<path class="st2" d="M103.5,25.8h-1.6V25h4.2v0.8h-1.6v4.3h-0.9L103.5,25.8L103.5,25.8z"/>
		<path class="st2" d="M107.8,25h1l1.2,3.8l1.3-3.8h0.8l1.3,3.8l1.2-3.8h1l-1.8,5.2H113l-1.3-3.7l-1.3,3.7h-0.8L107.8,25z"/>
		<path class="st2" d="M117.2,27.6L117.2,27.6c0-1.5,1.1-2.7,2.7-2.7c1.6,0,2.7,1.2,2.7,2.7v0c0,1.5-1.1,2.7-2.7,2.7
			C118.3,30.3,117.2,29.1,117.2,27.6z M121.6,27.6L121.6,27.6c0-1-0.7-1.9-1.8-1.9c-1,0-1.7,0.8-1.7,1.8v0c0,1,0.7,1.8,1.8,1.8
			C120.9,29.4,121.6,28.6,121.6,27.6z"/>
		<path class="st2" d="M124.9,25h2.3c0.7,0,1.2,0.2,1.5,0.5c0.3,0.3,0.4,0.7,0.4,1.1v0c0,0.8-0.5,1.4-1.2,1.6l1.4,2h-1.1l-1.3-1.8
			h-1.1v1.8h-0.9L124.9,25L124.9,25z M127.1,27.6c0.7,0,1.1-0.4,1.1-0.9v0c0-0.6-0.4-0.8-1.1-0.8h-1.3v1.7L127.1,27.6L127.1,27.6z"
			/>
		<path class="st2" d="M131.5,25h0.9v2.6l2.5-2.6h1.1l-2.1,2.2l2.3,2.9h-1.1l-1.8-2.3l-0.8,0.8v1.5h-0.9L131.5,25L131.5,25z"/>
		<path class="st2" d="M141.1,29.4l0.6-0.7c0.5,0.4,1,0.7,1.6,0.7c0.6,0,0.9-0.3,0.9-0.7l0,0c0-0.4-0.2-0.6-1.2-0.8
			c-1.1-0.3-1.7-0.6-1.7-1.5v0c0-0.9,0.7-1.5,1.8-1.5c0.8,0,1.4,0.2,1.9,0.7l-0.5,0.7c-0.5-0.4-0.9-0.5-1.4-0.5
			c-0.5,0-0.8,0.3-0.8,0.6v0c0,0.4,0.2,0.6,1.2,0.8c1.1,0.3,1.7,0.7,1.7,1.5v0c0,1-0.8,1.5-1.9,1.5C142.5,30.3,141.7,30,141.1,29.4z
			"/>
		<path class="st2" d="M148.6,25.8h-1.6V25h4.2v0.8h-1.6v4.3h-0.9L148.6,25.8L148.6,25.8z"/>
		<path class="st2" d="M152.8,27.6L152.8,27.6c0-1.5,1.1-2.7,2.7-2.7c1.6,0,2.7,1.2,2.7,2.7v0c0,1.5-1.1,2.7-2.7,2.7
			C153.9,30.3,152.8,29.1,152.8,27.6z M157.3,27.6L157.3,27.6c0-1-0.7-1.9-1.8-1.9c-1,0-1.7,0.8-1.7,1.8v0c0,1,0.7,1.8,1.8,1.8
			C156.5,29.4,157.3,28.6,157.3,27.6z"/>
		<path class="st2" d="M160.5,25h2.3c0.7,0,1.2,0.2,1.5,0.5c0.3,0.3,0.4,0.7,0.4,1.1v0c0,0.8-0.5,1.4-1.2,1.6l1.4,2h-1.1l-1.3-1.8
			h-1.1v1.8h-0.9L160.5,25L160.5,25z M162.8,27.6c0.7,0,1.1-0.4,1.1-0.9v0c0-0.6-0.4-0.8-1.1-0.8h-1.3v1.7L162.8,27.6L162.8,27.6z"
			/>
		<path class="st2" d="M167.1,25h3.8v0.8H168v1.4h2.6V28H168v1.4h3v0.8h-3.9L167.1,25L167.1,25z"/>
		<path class="st2" d="M172.9,29.4l0.6-0.7c0.5,0.4,1,0.7,1.6,0.7c0.6,0,0.9-0.3,0.9-0.7l0,0c0-0.4-0.2-0.6-1.2-0.8
			c-1.1-0.3-1.7-0.6-1.7-1.5v0c0-0.9,0.7-1.5,1.8-1.5c0.8,0,1.4,0.2,1.9,0.7l-0.5,0.7c-0.5-0.4-0.9-0.5-1.4-0.5
			c-0.5,0-0.8,0.3-0.8,0.6v0c0,0.4,0.2,0.6,1.2,0.8c1.1,0.3,1.7,0.7,1.7,1.5v0c0,1-0.8,1.5-1.9,1.5C174.3,30.3,173.5,30,172.9,29.4z
			"/>
	</g>
</g>
</svg>
