<?xml version="1.0" standalone="no"?>
<!DOCTYPE svg PUBLIC "-//W3C//DTD SVG 20010904//EN"
 "http://www.w3.org/TR/2001/REC-SVG-20010904/DTD/svg10.dtd">
<svg version="1.0" xmlns="http://www.w3.org/2000/svg"
 width="1280.000000pt" height="1280.000000pt" viewBox="0 0 1280.000000 1280.000000"
 preserveAspectRatio="xMidYMid meet">
<metadata>
Created by potrace 1.11, written by Peter Selinger 2001-2013
</metadata>
<g transform="translate(0.000000,1280.000000) scale(0.100000,-0.100000)"
fill="#000000" stroke="none">
<path d="M9510 8413 c-230 -23 -431 -75 -593 -151 -357 -169 -584 -454 -652
-821 -17 -96 -20 -324 -4 -421 35 -218 151 -420 320 -556 60 -49 72 -55 84
-43 7 8 102 122 210 254 108 132 207 251 219 265 153 178 217 264 211 284 -4
12 -9 48 -12 81 -3 49 0 68 19 105 28 55 91 104 161 126 71 22 248 29 360 15
252 -33 580 -158 792 -301 41 -27 78 -50 82 -50 5 0 51 61 103 135 52 75 115
164 140 199 25 35 88 124 139 197 52 74 104 146 115 161 19 27 19 28 1 48 -34
38 -240 169 -362 230 -271 136 -548 210 -898 240 -113 9 -357 11 -435 3z"/>
<path d="M1315 8338 c-3 -7 -4 -843 -3 -1858 l3 -1845 1418 -3 1417 -2 0 450
0 450 -900 0 -900 0 0 1410 0 1410 -515 0 c-403 0 -517 -3 -520 -12z"/>
<path d="M4382 6493 l3 -1858 510 0 510 0 0 1013 c0 556 3 1012 6 1012 3 0
104 -127 225 -282 290 -372 833 -1068 1003 -1287 75 -95 186 -237 246 -315
l110 -141 455 0 455 0 3 1858 2 1857 -515 0 -515 0 -2 -977 -3 -978 -190 244
c-104 134 -215 276 -245 315 -30 40 -118 152 -195 250 -77 98 -156 200 -176
225 -170 221 -650 836 -681 874 l-40 47 -484 0 -484 0 2 -1857z"/>
<path d="M10524 6238 l-302 -402 27 -35 c36 -48 43 -159 12 -218 -44 -87 -139
-137 -303 -158 l-47 -6 -296 -394 c-162 -217 -298 -400 -300 -408 -7 -17 100
-32 337 -48 366 -26 741 35 1006 161 141 67 231 129 335 229 133 128 216 258
273 425 94 275 79 628 -37 857 -43 87 -140 208 -214 269 -68 56 -172 130 -184
130 -3 0 -142 -181 -307 -402z"/>
<path d="M9285 6254 c-115 -23 -212 -44 -215 -44 -11 -3 82 -33 229 -76 85
-24 156 -42 159 -39 4 3 25 51 48 105 l42 100 -26 -1 c-15 -1 -121 -21 -237
-45z"/>
<path d="M8610 5825 c-19 -23 -149 -178 -288 -344 l-253 -302 23 -20 c61 -51
219 -167 289 -210 138 -86 423 -219 493 -231 17 -3 42 50 187 402 92 223 165
408 163 411 -2 3 -25 14 -51 24 -125 47 -288 139 -443 250 l-85 61 -35 -41z"/>
</g>
</svg>
