<?xml version="1.0" standalone="no"?>
<!DOCTYPE svg PUBLIC "-//W3C//DTD SVG 20010904//EN"
 "http://www.w3.org/TR/2001/REC-SVG-20010904/DTD/svg10.dtd">
<svg version="1.0" xmlns="http://www.w3.org/2000/svg"
 width="180.000000pt" height="180.000000pt" viewBox="0 0 180.000000 180.000000"
 preserveAspectRatio="xMidYMid meet">
<metadata>
Created by potrace 1.11, written by Peter Selinger 2001-2013
</metadata>
<g transform="translate(0.000000,180.000000) scale(0.100000,-0.100000)"
fill="#000000" stroke="none">
<path d="M255 1793 c-34 -8 -73 -53 -80 -91 -3 -21 -17 -86 -30 -147 -13 -60
-26 -121 -29 -135 -3 -14 -16 -79 -31 -145 -36 -169 -76 -356 -81 -383 -8 -39
5 -61 49 -83 39 -21 54 -21 394 -21 194 0 353 -1 353 -3 0 -2 -30 -82 -66
-177 -168 -445 -194 -516 -194 -529 0 -9 13 -28 29 -43 23 -22 40 -28 86 -31
101 -6 88 -17 377 296 53 57 108 118 123 134 38 42 236 255 315 340 36 38 70
74 75 81 6 6 60 64 120 129 135 144 143 155 127 189 -6 14 -23 33 -39 43 -25
16 -58 18 -378 19 -378 2 -359 -1 -331 54 14 29 133 255 183 348 18 34 33 71
33 81 0 19 -31 51 -66 69 -21 11 -896 16 -939 5z"/>
</g>
</svg>
